<svg width="20" height="20" viewBox="0 0 20 20" fill="none" xmlns="http://www.w3.org/2000/svg">
<path d="M16.3333 16.7929L11.4369 11.8964L11.1204 11.58L10.771 11.8596C10.4006 12.1558 9.97075 12.3938 9.4769 12.5711C8.99271 12.7449 8.47378 12.8333 7.91667 12.8333C6.53229 12.8333 5.37914 12.3595 4.42647 11.4069C3.4738 10.4542 3 9.30105 3 7.91667C3 6.53229 3.4738 5.37914 4.42647 4.42647C5.37914 3.4738 6.53229 3 7.91667 3C9.30105 3 10.4542 3.4738 11.4069 4.42647C12.3595 5.37914 12.8333 6.53229 12.8333 7.91667C12.8333 8.47378 12.7449 8.99271 12.5711 9.4769C12.3938 9.97075 12.1558 10.4006 11.8596 10.771L11.58 11.1204L11.8964 11.4369L16.7929 16.3333L16.3333 16.7929ZM7.91667 12.1667C9.08943 12.1667 10.1025 11.7505 10.9265 10.9265C11.7505 10.1025 12.1667 9.08943 12.1667 7.91667C12.1667 6.74391 11.7505 5.73086 10.9265 4.90686C10.1025 4.08286 9.08943 3.66667 7.91667 3.66667C6.74391 3.66667 5.73086 4.08286 4.90686 4.90686C4.08286 5.73086 3.66667 6.74391 3.66667 7.91667C3.66667 9.08943 4.08286 10.1025 4.90686 10.9265C5.73086 11.7505 6.74391 12.1667 7.91667 12.1667Z" fill="#1D1B20" stroke="#8B1FFF"/>
</svg>
